<svg xmlns:svg="http://www.w3.org/2000/svg" xmlns="http://www.w3.org/2000/svg" version="1.1" height="725" width="725" id="svg2">
  <metadata id="metadata13"/>
  <defs id="defs11"/>
  <path id="OuterCircle" d="M-101.56634 275.21499C-101.56634 468.51465-258.26668 625.21499-451.56634 625.21499 -644.866 625.21499-801.56634 468.51465-801.56634 275.21499 -801.56634 81.915331-644.866-74.785013-451.56634-74.785013 -258.26668-74.785013-101.56634 81.915331-101.56634 275.21499L-101.56634 275.21499z" style="fill-rule:evenodd;fill:#333;stroke-width:2.5;stroke:#000"/>
  <path id="BlueCircle" d="M-787.50747 13.111886C-972.29333 13.111886-1123.0075 163.82603-1123.0075 348.61189 -1123.0075 533.39775-972.29333 684.11189-787.50747 684.11189 -602.72161 684.11189-452.00747 533.39775-452.00747 348.61189 -452.00747 163.82603-602.72161 13.111886-787.50747 13.111886z" style="fill-opacity:1;fill-rule:evenodd;fill:#039"/>
  <g id="g3138" transform="translate(-90.847666,-19.594595)">
    <circle transform="matrix(0.612193,0,0,0.612193,156.40859,178.29391)" r="161" cy="409" cx="215" id="FrontWheel" style="fill:none;stroke-opacity:1;stroke-width:40;stroke:#333"/>
    <circle transform="matrix(0.612193,0,0,0.612193,156.40859,178.29391)" r="161" cy="406" cx="790" id="RearWheel" style="fill:none;stroke-opacity:1;stroke-width:40;stroke:#333"/>
    <path id="Frame" d="M419.33591 187.76277C338.17965 188.55377 351.94299 179.37821 308.27997 319.70103 272.71002 431.81886 276.58445 419.592 276.39842 427.45646 276.26805 433.56628 281.20005 438.4105 287.39765 438.82515 300.28652 437.52193 294.86517 440.2191 339.55071 301.45538 502.83002 473.69932 441.57171 445.76834 529.44266 449.2663 644.92819 448.15891 654.31469 455.27788 655.68575 438.35055 655.52755 432.60263 652.83816 429.17498 573.58029 252.78271L581.17385 231.90039 607.27675 231.42579 606.32755 209.59428 509.03495 209.59428C500.43945 221.35377 512.51534 221.30103 556.02016 230.9512L548.42659 252.3081 354.31598 252.78271C367.39379 207.11583 360.01116 209.96341 418.86132 210.06888L419.33591 187.76277zM348.70707 276.18977L538.64814 275.85299 483.75383 423.36041 348.70707 276.18977zM561.54883 284.94591L507.66484 426.39139 625.53607 426.72816 561.54883 284.94591z" style="fill-opacity:1;fill-rule:evenodd;fill:#333;stroke-opacity:1;stroke-width:0.61219299;stroke:#000"/>
  </g>
</svg>